<svg width="400" height="350" viewBox="0 0 400 350" fill="none" xmlns="http://www.w3.org/2000/svg">
<g clip-path="url(#clip0_15_15)">
<path d="M60.1748 170.904L1.01804 260.484C1.01804 260.484 62.8665 278.4 200.002 279.395C337.137 278.4 398.985 260.484 398.985 260.484L339.823 170.904H60.1748Z" fill="url(#paint0_linear_15_15)" stroke="url(#paint1_linear_15_15)" stroke-opacity="0.5" stroke-width="4.022"/>
<path d="M398.98 275.412C398.98 275.412 337.132 293.328 199.997 294.323C62.8614 293.328 1.01295 275.412 1.01295 275.412L1.46111 259.487C1.46111 259.487 62.8584 278.398 199.999 279.394C337.134 278.398 398.085 259.487 398.085 259.487L398.98 275.412Z" fill="url(#paint2_linear_15_15)"/>
<path d="M252.447 50.4687H159.578C153.544 50.4687 148.653 54.8801 148.653 60.322C148.653 65.7638 153.544 70.1753 159.578 70.1753H252.447C258.481 70.1753 263.372 65.7638 263.372 60.322C263.372 54.8801 258.481 50.4687 252.447 50.4687Z" fill="black" stroke="black" stroke-width="3.0165"/>
<path d="M138.195 12.9807L138.195 181.308C138.195 188.008 142.168 193.44 147.068 193.44H147.069C151.969 193.44 155.942 188.008 155.942 181.308L155.942 12.9807C155.942 6.28061 151.969 0.849091 147.069 0.849091H147.068C142.168 0.849091 138.195 6.28061 138.195 12.9807Z" fill="black" stroke="black" stroke-width="3.0165"/>
<path d="M263.367 12.9863V178.043C263.367 184.743 259.664 190.175 255.095 190.175H253.893C249.324 190.175 245.621 184.743 245.621 178.043L245.621 12.9863C245.621 6.28624 249.324 0.854721 253.893 0.854721H255.095C259.664 0.854721 263.367 6.28624 263.367 12.9863Z" fill="black" stroke="black" stroke-width="3.0165"/>
<path d="M276.052 98.94C269.086 98.6823 263.695 106.81 265.023 114.191C264.983 132.573 264.658 151.004 265.217 169.355C266.94 179.155 274.92 186.635 283.72 188.057C304.355 195.132 324.913 202.628 345.721 208.987C352.477 209.569 358.972 202.496 357.797 194.861C357.863 175.931 358.255 156.937 357.554 138.042C355.674 128.361 347.628 121.087 338.932 119.618C318.573 112.817 298.355 105.351 277.904 98.9732C277.288 98.9337 276.669 98.8989 276.051 98.938L276.052 98.94Z" fill="#666666" stroke="url(#paint3_linear_15_15)" stroke-width="3.0165"/>
<path d="M279.853 104.043L342.997 125.666C349.013 127.726 353.89 134.811 353.89 141.492V195.419C353.89 202.099 349.013 205.845 342.997 203.785L279.853 182.162C273.837 180.102 268.959 173.016 268.959 166.336V112.409C268.959 105.728 273.837 101.983 279.853 104.043Z" fill="black" stroke="url(#paint4_linear_15_15)" stroke-width="3.08578"/>
<path d="M131.391 98.9062C122.549 100.462 114.323 104.775 105.662 107.223C90.5698 112.551 75.151 116.994 60.3755 123.269C52.7597 128.222 49.0257 138.668 50.4228 148.212C50.7363 165.748 49.533 183.41 51.1087 200.861C53.4109 208.421 62.389 210.853 68.399 207.461C89.9392 199.513 112.033 193.262 133.309 184.554C141.011 179.635 144.676 169.103 143.294 159.541C142.99 142.058 144.136 124.453 142.624 107.05C141.117 101.911 136.148 98.6411 131.393 98.9057L131.391 98.9062Z" fill="#666666" stroke="url(#paint5_linear_15_15)" stroke-width="3.0165"/>
<path d="M128.426 104.043L65.2821 125.665C59.2659 127.726 54.3888 134.811 54.3888 141.492V195.419C54.3888 202.099 59.2659 205.845 65.2821 203.785L128.426 182.162C134.443 180.102 139.32 173.016 139.32 166.336V112.409C139.32 105.728 134.443 101.983 128.426 104.043Z" fill="black" stroke="url(#paint6_linear_15_15)" stroke-width="3.08578"/>
<path d="M249.058 96.5308C217.778 97.0163 186.413 96.0879 155.182 97.0233C147.03 98.9774 142.13 109.126 143.69 117.974C144.025 136.034 142.872 154.191 144.347 172.188C146.619 180.935 155.734 185.358 163.436 183.76C193.724 183.458 224.057 184.441 254.315 183.218C262.223 180.937 266.675 171.007 265.221 162.391C264.813 144.17 266.178 125.818 264.437 107.683C262.246 100.757 255.643 96.0968 249.056 96.5313L249.058 96.5308Z" fill="#666666" stroke="url(#paint7_linear_15_15)" stroke-width="3.0165"/>
<path d="M250.284 101.141H158.623C152.607 101.141 147.73 106.557 147.73 113.237V167.164C147.73 173.845 152.607 179.26 158.623 179.26H250.284C256.3 179.26 261.177 173.845 261.177 167.164V113.237C261.177 106.557 256.3 101.141 250.284 101.141Z" fill="black" stroke="url(#paint8_linear_15_15)" stroke-width="3.0165"/>
<path d="M186.191 9.20136C159.836 11.9951 133.33 13.2029 107.031 16.4842C98.7939 19.2376 94.3255 29.6808 95.8528 38.7716C96.2048 56.7383 94.9343 74.8513 96.5919 92.7222C99.0519 100.898 107.982 104.665 115.172 102.543C140.434 100.053 165.847 98.9657 191.006 95.4663C198.82 92.4056 202.955 82.3254 201.519 73.5307C201.168 55.6147 202.396 37.5699 200.827 19.7383C198.908 13.0314 192.404 8.68687 186.19 9.20136H186.191Z" fill="#666666" stroke="url(#paint9_linear_15_15)" stroke-width="3.0165"/>
<path d="M186.59 13.81L110.773 20.2697C104.757 20.7823 99.8802 26.6134 99.8802 33.2939V87.2209C99.8802 93.9014 104.757 98.9015 110.773 98.3889L186.59 91.9292C192.606 91.4167 197.483 85.5855 197.483 78.905V24.978C197.483 18.2975 192.606 13.2974 186.59 13.81Z" fill="black" stroke="url(#paint10_linear_15_15)" stroke-width="3.02092"/>
<path d="M219.949 9.26895C212.172 9.98896 205.996 18.8754 207.447 27.4754C207.451 45.7921 207.022 64.159 207.672 82.4459C209.417 91.4337 217.776 97.6617 225.965 96.6473C250.952 98.8691 275.975 101.291 300.978 102.868C308.556 101.815 314.387 93.1894 313.005 84.7853C312.994 66.3059 313.494 47.7178 312.701 29.3042C310.721 20.4262 302.352 14.5196 294.295 15.4344C269.515 13.3913 244.745 10.97 219.951 9.26837L219.949 9.26895Z" fill="#666666" stroke="url(#paint11_linear_15_15)" stroke-width="3.0165"/>
<path d="M222.323 13.8066L298.14 20.2663C304.156 20.7789 309.033 26.61 309.033 33.2906V87.2175C309.033 93.898 304.156 98.8981 298.14 98.3856L222.323 91.9259C216.307 91.4133 211.43 85.5821 211.43 78.9016V24.9747C211.43 18.2941 216.307 13.294 222.323 13.8066Z" fill="black" stroke="url(#paint12_linear_15_15)" stroke-width="3.02092"/>
<path d="M217.068 264.241H301.103L273.091 225.571H245.08H161.045H133.033L105.021 264.241H189.057H217.068Z" fill="url(#paint13_linear_15_15)"/>
<path fill-rule="evenodd" clip-rule="evenodd" d="M134.126 256.42C139.559 259.828 147.175 258.446 151.136 253.331C155.097 248.217 153.904 241.308 148.471 237.899C143.038 234.491 135.423 235.874 131.461 240.988C127.5 246.103 128.693 253.012 134.126 256.42Z" fill="#E4D3B1" stroke="black" stroke-width="4.08404" stroke-linecap="round" stroke-linejoin="round"/>
<path fill-rule="evenodd" clip-rule="evenodd" d="M146.799 244.425C142.045 242.663 135.763 245.379 132.509 249.612C122.79 262.256 135.289 319.423 155.221 310.737C175.771 301.781 166.222 275.239 166.222 275.239C166.222 275.239 157.509 248.395 146.799 244.426V244.425Z" fill="url(#paint14_linear_15_15)" stroke="url(#paint15_linear_15_15)" stroke-width="4.022" stroke-linecap="round" stroke-linejoin="round"/>
<path fill-rule="evenodd" clip-rule="evenodd" d="M152.324 231.096C157.078 229.334 163.361 232.05 166.615 236.282C176.334 248.927 173.69 285.531 173.69 285.531C173.69 285.531 163.834 306.094 143.902 297.406C123.352 288.45 132.901 261.908 132.901 261.908C132.901 261.908 141.614 235.064 152.324 231.095L152.324 231.096Z" fill="#DC3545" stroke="black" stroke-width="4.022" stroke-linecap="round" stroke-linejoin="round"/>
<path fill-rule="evenodd" clip-rule="evenodd" d="M268.414 257.417C262.981 260.825 255.365 259.442 251.404 254.328C247.443 249.213 248.636 242.305 254.069 238.896C259.502 235.487 267.117 236.871 271.079 241.985C275.04 247.099 273.847 254.009 268.414 257.417Z" fill="#E4D3B1" stroke="black" stroke-width="4.08404" stroke-linecap="round" stroke-linejoin="round"/>
<path fill-rule="evenodd" clip-rule="evenodd" d="M255.743 245.421C260.497 243.66 266.779 246.376 270.033 250.608C279.752 263.253 267.253 320.419 247.321 311.734C226.771 302.778 236.319 276.235 236.319 276.235C236.319 276.235 245.033 249.391 255.743 245.423V245.421Z" fill="url(#paint16_linear_15_15)" stroke="url(#paint17_linear_15_15)" stroke-width="4.022" stroke-linecap="round" stroke-linejoin="round"/>
<path fill-rule="evenodd" clip-rule="evenodd" d="M250.217 232.092C245.463 230.33 239.18 233.046 235.926 237.279C226.207 249.923 228.851 286.527 228.851 286.527C228.851 286.527 238.707 307.09 258.639 298.402C279.189 289.447 269.64 262.904 269.64 262.904C269.64 262.904 260.927 236.06 250.217 232.092L250.217 232.092Z" fill="#DC3545" stroke="black" stroke-width="4.022" stroke-linecap="round" stroke-linejoin="round"/>
<path fill-rule="evenodd" clip-rule="evenodd" d="M203.627 207.705C203.426 207.707 203.224 207.708 203.023 207.709C202.908 207.704 202.794 207.685 202.68 207.692C202.503 207.695 202.323 207.673 202.147 207.677L202.158 207.726C188.664 208.318 176.156 211.885 167.769 223C149.792 246.663 142.915 278.102 142.281 308.367C142.746 316.14 141.359 330.58 144.326 337.362C155.123 344.832 166.014 345.584 179 347.5C182.447 347.725 196.081 348.641 202.025 348.775L202.024 348.796C202.648 348.813 203.242 348.808 203.857 348.817C203.918 348.807 203.978 348.823 204.037 348.813C209.981 348.873 215.456 348.914 218.902 348.801C231.892 347.308 250.945 346.398 261.756 339.28C264.736 332.595 263.367 323.251 263.846 315.494C263.271 285.207 256.455 253.544 238.523 229.298C230.154 217.911 217.667 208.792 204.176 207.762L204.165 207.693C203.989 207.697 203.633 207.703 203.633 207.703L203.627 207.705Z" fill="url(#paint18_linear_15_15)" stroke="url(#paint19_linear_15_15)" stroke-width="4.022" stroke-linecap="round" stroke-linejoin="round"/>
<path d="M206.937 115.414L201.054 115.183C164.78 113.759 134.845 141.076 134.191 176.198L134.11 180.581C133.456 215.703 162.331 245.33 198.604 246.755L204.487 246.986C240.76 248.41 270.696 221.093 271.35 185.97L271.431 181.588C272.085 146.465 243.21 116.838 206.937 115.414Z" fill="#E4D3B1" stroke="black" stroke-width="4.02185" stroke-linecap="round" stroke-linejoin="bevel"/>
<path d="M181.943 120.745C181.943 120.745 204.641 105.822 228.82 109.677C252.998 113.532 284.276 151.572 284.276 151.572C284.276 151.572 283.965 160.39 277.508 170.647C271.051 180.903 269.68 177.258 269.68 177.258C269.68 177.258 257.913 216.709 240.939 221.258C230.425 224.077 190.936 217.022 172.599 211.827C147.083 208.473 147.208 201.712 141.783 190.256C132.711 171.097 131.932 139.509 146.524 127.51C157.567 119.609 179.281 115.708 181.941 120.745L181.943 120.745Z" fill="#342608" stroke="black" stroke-width="4.02185"/>
<path d="M66.4853 145.369C66.6644 145.76 66.7196 146.153 66.651 146.547C66.5853 146.94 66.4005 147.309 66.0964 147.654C65.7923 147.998 65.372 148.294 64.8356 148.539C64.2417 148.811 63.7036 148.953 63.2214 148.965C62.7408 148.973 62.3097 148.908 61.9281 148.771L62.2995 147.589C62.6259 147.685 62.9557 147.725 63.2889 147.708C63.6207 147.688 63.9548 147.601 64.2912 147.447C64.5003 147.351 64.6697 147.237 64.7996 147.104C64.9294 146.971 65.0119 146.827 65.047 146.672C65.0821 146.516 65.0622 146.357 64.9872 146.193C64.9164 146.038 64.8219 145.924 64.7036 145.85C64.5853 145.776 64.4234 145.734 64.2179 145.726C64.0153 145.716 63.747 145.735 63.4128 145.781C62.8524 145.855 62.3806 145.869 61.9973 145.825C61.617 145.779 61.3038 145.668 61.0578 145.491C60.8148 145.312 60.6204 145.064 60.4746 144.746C60.2983 144.361 60.2538 143.984 60.3409 143.614C60.4312 143.242 60.624 142.903 60.9194 142.595C61.2134 142.285 61.577 142.03 62.0104 141.832C62.4983 141.608 62.9613 141.482 63.3993 141.454C63.8359 141.422 64.2502 141.475 64.6424 141.61L64.3084 142.742C64.0144 142.661 63.7252 142.634 63.4409 142.661C63.1551 142.686 62.885 142.756 62.6304 142.873C62.4425 142.959 62.2885 143.059 62.1683 143.173C62.0467 143.283 61.9673 143.402 61.9301 143.529C61.893 143.656 61.9056 143.788 61.9681 143.924C62.0292 144.058 62.1184 144.152 62.2358 144.209C62.3533 144.265 62.5246 144.291 62.75 144.287C62.974 144.279 63.277 144.252 63.6589 144.206C64.1114 144.145 64.5175 144.135 64.8771 144.176C65.2383 144.212 65.5514 144.323 65.8166 144.51C66.0847 144.695 66.3076 144.981 66.4853 145.369ZM72.4691 144.515C72.3367 144.722 72.1566 144.929 71.9288 145.136C71.701 145.343 71.4204 145.523 71.087 145.676C70.4567 145.964 69.9149 146.018 69.4617 145.837C69.0071 145.653 68.6527 145.284 68.3987 144.729L67.395 142.538L66.3813 143.003L65.9273 142.012L66.941 141.547L66.4621 140.502L67.8194 139.671L68.3775 140.889L69.9322 140.177L70.2452 141.233L68.8315 141.88L69.8351 144.071C69.9448 144.311 70.0778 144.457 70.2341 144.51C70.3904 144.563 70.5882 144.535 70.8276 144.425C70.9974 144.347 71.1429 144.257 71.2642 144.154C71.3872 144.046 71.4902 143.935 71.5732 143.82L72.4691 144.515ZM77.1305 141.037C77.2138 141.219 77.2984 141.34 77.3844 141.4C77.4734 141.458 77.5837 141.482 77.7152 141.473L77.8529 142.554C77.5555 142.658 77.2861 142.706 77.0447 142.699C76.805 142.688 76.5832 142.608 76.3795 142.459C76.2959 142.765 76.1352 143.039 75.8973 143.28C75.658 143.518 75.3883 143.705 75.0883 143.843C74.5913 144.07 74.1297 144.111 73.7037 143.966C73.2792 143.815 72.9649 143.517 72.7609 143.072C72.5207 142.548 72.5399 142.049 72.8186 141.577C73.1002 141.104 73.6138 140.696 74.3593 140.354L75.0094 140.057L74.9261 139.875C74.8108 139.623 74.6436 139.474 74.4245 139.428C74.2083 139.38 73.9442 139.428 73.632 139.571C73.4775 139.642 73.2894 139.756 73.0678 139.912C72.8448 140.066 72.6308 140.239 72.4258 140.432L71.6567 139.629C71.9147 139.368 72.198 139.13 72.5066 138.915C72.8183 138.699 73.1075 138.53 73.3741 138.408C74.0924 138.079 74.69 137.983 75.1671 138.12C75.6459 138.253 76.0116 138.595 76.2642 139.146L77.1305 141.037ZM75.1132 142.588C75.2677 142.518 75.409 142.398 75.5371 142.229C75.6638 142.058 75.7322 141.867 75.7423 141.657L75.3842 140.875L75.0296 141.037C74.6296 141.221 74.3641 141.417 74.2331 141.628C74.1007 141.835 74.0887 142.057 74.197 142.293C74.2817 142.478 74.4044 142.598 74.5651 142.653C74.7274 142.703 74.9101 142.681 75.1132 142.588ZM81.2667 139.643C81.4637 139.553 81.6312 139.43 81.7692 139.275C81.9089 139.116 82.0373 138.936 82.1545 138.736L83.212 139.351C83.0831 139.63 82.8934 139.901 82.6429 140.162C82.3954 140.422 82.0837 140.638 81.7079 140.81C81.1897 141.048 80.6956 141.146 80.2257 141.104C79.7544 141.06 79.332 140.894 78.9584 140.607C78.5835 140.317 78.2808 139.92 78.0504 139.417C77.8199 138.914 77.7167 138.421 77.7406 137.937C77.7662 137.448 77.9156 137.006 78.1886 136.609C78.4647 136.212 78.8619 135.894 79.3801 135.657C79.7468 135.489 80.0961 135.391 80.4282 135.364C80.7619 135.332 81.0943 135.361 81.4253 135.451L81.1982 136.6C80.9818 136.56 80.7681 136.55 80.5571 136.569C80.3461 136.589 80.1422 136.644 79.9452 136.734C79.6209 136.883 79.4115 137.118 79.317 137.44C79.2242 137.757 79.302 138.187 79.5505 138.73C79.7129 139.084 79.8883 139.343 80.0766 139.506C80.2636 139.666 80.4575 139.753 80.6584 139.768C80.8609 139.778 81.0637 139.736 81.2667 139.643ZM86.9772 132.369L86.3694 135.232L89.3204 137.136L87.684 137.886L84.8856 135.967L85.4725 133.058L86.9772 132.369ZM82.8841 131.742L86.0429 138.638L84.6065 139.296L81.5163 132.55L82.8841 131.742ZM93.2267 131.53C93.5321 132.197 93.7031 132.822 93.7399 133.407C93.7752 133.988 93.6682 134.503 93.4187 134.951C93.1709 135.394 92.7712 135.743 92.2197 135.995C91.6712 136.246 91.1479 136.325 90.65 136.23C90.1507 136.133 89.6924 135.881 89.2752 135.474C88.858 135.068 88.4932 134.523 88.1809 133.842C87.8755 133.175 87.7051 132.551 87.6697 131.969C87.6344 131.388 87.7421 130.875 87.9929 130.43C88.2424 129.982 88.6414 129.632 89.1899 129.381C89.7415 129.128 90.2647 129.05 90.7596 129.146C91.2576 129.241 91.7151 129.491 92.1323 129.898C92.5495 130.304 92.9143 130.848 93.2267 131.53ZM91.6993 132.23C91.3439 131.454 91.0084 130.926 90.6928 130.645C90.3772 130.364 90.0422 130.305 89.6876 130.468C89.333 130.63 89.1597 130.924 89.1675 131.349C89.174 131.772 89.3542 132.369 89.7082 133.142C90.0636 133.918 90.4006 134.445 90.7192 134.725C91.0379 135.004 91.3714 135.064 91.7199 134.904C92.0836 134.738 92.2585 134.443 92.2445 134.02C92.2323 133.593 92.0505 132.997 91.6993 132.23ZM97.8526 127.387L98.4549 132.952L96.7638 133.727L92.925 129.644L94.4751 128.934L97.1236 132.231L96.398 128.054L97.8526 127.387ZM101.292 129.238C101.446 129.486 101.612 129.669 101.79 129.785C101.97 129.897 102.159 129.954 102.357 129.954C102.554 129.952 102.754 129.905 102.957 129.812C103.178 129.71 103.375 129.576 103.548 129.409C103.721 129.242 103.875 129.054 104.01 128.845L104.946 129.363C104.807 129.661 104.604 129.946 104.337 130.219C104.073 130.49 103.735 130.72 103.322 130.909C102.771 131.162 102.259 131.264 101.786 131.217C101.312 131.167 100.893 130.992 100.529 130.693C100.164 130.394 99.8678 129.995 99.6387 129.495C99.4208 129.019 99.3139 128.546 99.318 128.074C99.3208 127.6 99.4436 127.168 99.6866 126.778C99.9313 126.384 100.307 126.071 100.813 125.839C101.273 125.628 101.717 125.544 102.144 125.587C102.573 125.628 102.965 125.791 103.319 126.076C103.677 126.36 103.974 126.761 104.211 127.279C104.249 127.361 104.286 127.45 104.323 127.547C104.363 127.642 104.395 127.728 104.419 127.805L101.292 129.238ZM101.254 126.802C100.997 126.92 100.831 127.108 100.758 127.365C100.686 127.622 100.725 127.961 100.878 128.383L102.651 127.571C102.487 127.22 102.29 126.97 102.059 126.819C101.829 126.668 101.56 126.662 101.254 126.802ZM106.457 129.286L106.016 128.322L106.652 128.031L105.32 125.122L104.683 125.413L104.246 124.459L105.978 123.665L106.739 124.631C106.722 124.137 106.8 123.727 106.974 123.402C107.15 123.075 107.433 122.823 107.82 122.645C107.984 122.57 108.136 122.517 108.276 122.486C108.414 122.452 108.55 122.432 108.683 122.426L108.79 123.813C108.691 123.829 108.594 123.851 108.501 123.879C108.408 123.907 108.308 123.945 108.202 123.994C107.887 124.138 107.668 124.394 107.547 124.761C107.429 125.127 107.398 125.537 107.456 125.991L108.089 127.373L109.043 126.936L109.485 127.899L106.457 129.286ZM108.439 124.98L107.793 123.57L107.728 122.863L108.683 122.426L109.339 124.567L108.439 124.98ZM111.777 118.506C112.129 118.345 112.453 118.232 112.749 118.166C113.043 118.097 113.318 118.059 113.571 118.053L113.605 119.17C113.409 119.183 113.217 119.216 113.029 119.269C112.839 119.32 112.658 119.384 112.485 119.463C112.2 119.594 112.019 119.739 111.942 119.899C111.868 120.058 111.886 120.257 111.996 120.496L112.292 121.141L113.864 120.421L114.161 121.489L112.748 122.137L114.363 125.665L112.936 126.318L111.32 122.791L110.306 123.255L109.85 122.26L110.864 121.795L110.543 121.095C110.398 120.777 110.343 120.458 110.379 120.137C110.416 119.816 110.549 119.514 110.779 119.233C111.008 118.948 111.341 118.706 111.777 118.506ZM116.743 116.413L119.137 121.641C119.226 121.835 119.345 121.949 119.493 121.984C119.642 122.014 119.814 121.985 120.008 121.896C120.132 121.839 120.246 121.771 120.348 121.691C120.45 121.608 120.541 121.524 120.623 121.439L121.408 122.239C121.283 122.399 121.12 122.564 120.919 122.733C120.718 122.902 120.464 123.057 120.158 123.197C119.576 123.464 119.073 123.493 118.647 123.284C118.221 123.073 117.878 122.685 117.62 122.121L115.756 118.053L114.333 118.705L113.884 117.723L116.743 116.413ZM122.573 115.871C123.07 115.643 123.541 115.556 123.987 115.608C124.432 115.661 124.836 115.837 125.197 116.137C125.557 116.434 125.855 116.84 126.091 117.356C126.336 117.892 126.454 118.397 126.444 118.871C126.435 119.341 126.304 119.758 126.05 120.124C125.796 120.49 125.422 120.786 124.928 121.012C124.437 121.237 123.969 121.328 123.525 121.286C123.083 121.243 122.68 121.072 122.316 120.773C121.955 120.473 121.651 120.053 121.404 119.514C121.169 119.002 121.056 118.511 121.065 118.041C121.076 117.57 121.207 117.147 121.457 116.773C121.71 116.396 122.082 116.096 122.573 115.871ZM123.058 116.93C122.764 117.065 122.601 117.286 122.57 117.594C122.54 117.897 122.645 118.311 122.886 118.835C123.13 119.368 123.377 119.723 123.626 119.898C123.878 120.072 124.151 120.092 124.445 119.958C124.739 119.823 124.901 119.604 124.93 119.301C124.963 118.996 124.856 118.574 124.609 118.035C124.37 117.513 124.125 117.166 123.872 116.991C123.623 116.816 123.352 116.795 123.058 116.93ZM132.318 117.44L130.731 118.167L128.831 115.111L129.886 118.554L128.326 119.268L125.401 114.768L126.715 114.166L128.83 117.954L127.817 114.398L129.026 113.844L131.003 116.959L129.524 112.879L130.793 112.298L132.318 117.44Z" fill="#DC3545"/>
<path d="M299.646 132.918L301.367 126.205L302.956 126.612L301.556 132.071L304.467 132.817L303.981 134.029L299.646 132.918ZM309.693 130.012L308.643 134.109L309.951 134.445L309.682 135.491L305.386 134.389L305.655 133.343L307.112 133.717L307.895 130.666L306.485 130.304L306.753 129.258L309.693 130.012ZM309.459 127.082C309.723 127.15 309.919 127.288 310.044 127.495C310.17 127.703 310.201 127.93 310.139 128.175C310.076 128.42 309.939 128.605 309.728 128.73C309.518 128.852 309.28 128.879 309.015 128.811C308.747 128.742 308.549 128.604 308.42 128.395C308.295 128.184 308.264 127.956 308.327 127.71C308.39 127.465 308.527 127.282 308.737 127.16C308.95 127.039 309.191 127.013 309.459 127.082ZM311.04 135.839L312.358 130.695L313.695 131.038L313.649 131.661C313.944 131.461 314.236 131.331 314.523 131.271C314.811 131.21 315.117 131.222 315.443 131.305C315.883 131.418 316.194 131.641 316.377 131.973C316.56 132.306 316.589 132.716 316.464 133.203L315.495 136.981L313.965 136.589L314.821 133.252C314.874 133.042 314.902 132.872 314.905 132.742C314.908 132.608 314.879 132.506 314.818 132.436C314.761 132.362 314.67 132.31 314.544 132.277C314.437 132.25 314.326 132.247 314.21 132.269C314.099 132.289 313.983 132.33 313.864 132.392C313.745 132.455 313.621 132.535 313.493 132.633L312.57 136.231L311.04 135.839ZM319.697 132.577L318.794 136.098C318.731 136.346 318.732 136.529 318.798 136.646C318.868 136.764 318.985 136.843 319.15 136.886C319.308 136.926 319.479 136.917 319.663 136.857C319.847 136.798 320.014 136.696 320.164 136.552L321.092 132.934L322.622 133.327L321.304 138.47L319.967 138.128L320.053 137.51C319.814 137.717 319.536 137.848 319.219 137.905C318.902 137.961 318.588 137.95 318.278 137.87C317.781 137.743 317.448 137.504 317.279 137.155C317.112 136.802 317.09 136.382 317.215 135.894L318.167 132.184L319.697 132.577ZM323.848 139.122L322.191 138.698L324.647 136.447L323.675 133.596L325.389 134.036L325.79 135.894L327.007 134.451L328.634 134.868L326.512 136.863L327.577 140.079L325.843 139.634L325.319 137.45L323.848 139.122Z" fill="#DC3545"/>
<rect x="103" y="29.4357" width="90" height="10" rx="5" transform="rotate(-5.37823 103 29.4357)" fill="#DC3545"/>
<path d="M104.875 53.456C104.616 50.7067 106.635 48.2682 109.384 48.0093L161.948 43.0608C164.697 42.8019 167.135 44.8208 167.394 47.5701C167.653 50.3194 165.634 52.7579 162.885 53.0167L110.321 57.9653C107.572 58.2241 105.133 56.2052 104.875 53.456Z" fill="#DC3545"/>
<path d="M104.469 72.8639C104.21 70.1146 106.229 67.6761 108.978 67.4172L145.823 63.9485C148.573 63.6896 151.011 65.7085 151.27 68.4578C151.529 71.2071 149.51 73.6456 146.761 73.9044L109.915 77.3732C107.166 77.632 104.727 75.6131 104.469 72.8639Z" fill="#DC3545"/>
<path d="M217.518 30.0267C217.73 29.8095 217.972 29.646 218.245 29.5361C218.521 29.4268 218.806 29.3906 219.101 29.4277C219.599 29.4905 219.989 29.6671 220.27 29.9575C220.555 30.2483 220.744 30.6323 220.835 31.1095C220.926 31.5867 220.933 32.1399 220.853 32.7693C220.778 33.3659 220.622 33.8876 220.385 34.3345C220.151 34.7782 219.845 35.1129 219.466 35.3386C219.087 35.5606 218.646 35.6401 218.144 35.5768C217.536 35.5004 217.088 35.2037 216.798 34.6868L216.667 35.2024L215.139 35.01L216.158 26.912L217.905 26.949L217.518 30.0267ZM217.849 34.2647C218.155 34.3032 218.414 34.1936 218.628 33.9359C218.842 33.6746 218.99 33.2183 219.072 32.5672C219.132 32.0869 219.141 31.7111 219.097 31.4395C219.058 31.1648 218.975 30.9678 218.85 30.8485C218.729 30.7261 218.577 30.6534 218.395 30.6305C218.202 30.6062 218.022 30.6445 217.854 30.7453C217.686 30.8461 217.526 30.9922 217.372 31.1835L217.064 33.6282C217.152 33.813 217.257 33.9593 217.381 34.0672C217.504 34.1751 217.66 34.2409 217.849 34.2647ZM224.137 30.2557L223.637 34.2229C223.602 34.503 223.629 34.7023 223.717 34.8206C223.809 34.9394 223.948 35.0104 224.134 35.0338C224.312 35.0562 224.498 35.0223 224.69 34.9319C224.882 34.8416 225.051 34.7076 225.195 34.5299L225.708 30.4536L227.433 30.6707L226.703 36.4659L225.197 36.2763L225.206 35.59C224.974 35.8491 224.688 36.0312 224.35 36.1364C224.011 36.2416 223.668 36.2722 223.318 36.2283C222.758 36.1577 222.362 35.9434 222.13 35.5853C221.898 35.2235 221.817 34.768 221.886 34.2186L222.412 30.0386L224.137 30.2557ZM234.219 30.5826L234.463 31.8995C234.25 31.9539 234.004 31.9821 233.727 31.9841C233.449 31.9861 233.129 31.9643 232.765 31.9185C233.109 32.1207 233.361 32.3501 233.521 32.6068C233.685 32.8602 233.743 33.1743 233.696 33.549C233.649 33.9237 233.507 34.2458 233.269 34.5153C233.033 34.7812 232.72 34.9746 232.332 35.0957C231.943 35.2168 231.498 35.2458 230.996 35.1826C230.872 35.167 230.756 35.1469 230.649 35.1222C230.541 35.0976 230.436 35.0677 230.333 35.0326C230.267 35.0575 230.214 35.0989 230.173 35.1566C230.133 35.2143 230.108 35.2759 230.1 35.3414C230.088 35.4323 230.115 35.5188 230.178 35.6007C230.245 35.6831 230.417 35.7417 230.694 35.7765L231.643 35.896C232.094 35.9528 232.474 36.0746 232.783 36.2613C233.096 36.4485 233.328 36.6791 233.478 36.953C233.628 37.2269 233.683 37.5257 233.642 37.8495C233.568 38.4425 233.249 38.8772 232.685 39.1537C232.122 39.4302 231.328 39.5038 230.302 39.3747C229.56 39.2813 228.994 39.1325 228.606 38.9284C228.221 38.7284 227.966 38.4783 227.841 38.178C227.72 37.8818 227.683 37.5427 227.731 37.1608L229.259 37.3531C229.238 37.5205 229.254 37.661 229.306 37.7748C229.361 37.8926 229.48 37.9889 229.663 38.0636C229.849 38.1388 230.124 38.1993 230.488 38.2451C230.856 38.2914 231.139 38.2976 231.34 38.2636C231.54 38.2297 231.681 38.1662 231.763 38.073C231.848 37.9839 231.898 37.8775 231.914 37.7539C231.935 37.5829 231.885 37.4362 231.764 37.3137C231.643 37.1913 231.437 37.1117 231.146 37.0751L230.223 36.959C229.598 36.8802 229.157 36.7084 228.902 36.4434C228.648 36.1749 228.54 35.886 228.579 35.5768C228.606 35.3621 228.688 35.1655 228.825 34.9869C228.966 34.8087 229.148 34.6672 229.372 34.5624C229.026 34.3192 228.789 34.0548 228.663 33.769C228.536 33.4797 228.497 33.1477 228.544 32.7729C228.599 32.3364 228.757 31.9756 229.018 31.6907C229.28 31.4022 229.616 31.1969 230.027 31.0749C230.442 30.9534 230.9 30.9242 231.402 30.9874C231.834 31.0492 232.214 31.0675 232.543 31.0423C232.871 31.0135 233.17 30.9569 233.44 30.8726C233.71 30.7846 233.969 30.6879 234.219 30.5826ZM231.305 32.1116C231.032 32.0773 230.804 32.1373 230.622 32.2918C230.441 32.4426 230.331 32.669 230.293 32.971C230.253 33.2911 230.304 33.547 230.446 33.7386C230.588 33.9301 230.792 34.0427 231.057 34.0761C231.345 34.1123 231.574 34.0543 231.745 33.9021C231.919 33.7503 232.027 33.5071 232.069 33.1724C232.11 32.8486 232.065 32.6009 231.935 32.4294C231.806 32.2542 231.596 32.1482 231.305 32.1116ZM243.771 37.5504C244.059 37.5866 244.296 37.5702 244.482 37.5012C244.671 37.4327 244.778 37.3075 244.801 37.1256C244.816 37.0019 244.795 36.8939 244.736 36.8015C244.677 36.7091 244.555 36.6124 244.368 36.5113C244.181 36.4101 243.901 36.2825 243.529 36.1285C243.188 35.9895 242.89 35.83 242.636 35.6502C242.385 35.4708 242.198 35.2568 242.074 35.0084C241.953 34.7604 241.915 34.4655 241.958 34.1235C242.001 33.7779 242.136 33.4826 242.363 33.2377C242.59 32.9928 242.9 32.8175 243.294 32.7119C243.688 32.6026 244.157 32.5821 244.699 32.6503C245.215 32.7154 245.656 32.8392 246.021 33.0219C246.39 33.2014 246.702 33.4107 246.957 33.6497L246.141 34.5781C245.92 34.3987 245.677 34.248 245.411 34.1259C245.146 34.0001 244.873 33.9196 244.593 33.8843C244.313 33.8491 244.099 33.8609 243.951 33.9199C243.808 33.9757 243.726 34.0782 243.708 34.2274C243.695 34.3256 243.719 34.4154 243.779 34.4969C243.843 34.5752 243.968 34.6649 244.155 34.766C244.343 34.8635 244.618 34.9906 244.983 35.1474C245.345 35.3001 245.655 35.4629 245.914 35.636C246.177 35.8095 246.37 36.0223 246.493 36.2744C246.617 36.5228 246.655 36.8362 246.608 37.2145C246.554 37.6365 246.384 37.9754 246.097 38.2312C245.81 38.4834 245.451 38.6543 245.018 38.744C244.586 38.8336 244.122 38.8473 243.627 38.785C243.067 38.7145 242.582 38.5722 242.173 38.3581C241.764 38.1439 241.425 37.8869 241.156 37.587L242.146 36.7249C242.349 36.9279 242.586 37.1055 242.855 37.2576C243.128 37.4102 243.433 37.5078 243.771 37.5504ZM251.821 33.547C252.327 33.6107 252.719 33.7875 252.996 34.0774C253.274 34.3674 253.455 34.7505 253.539 35.2267C253.627 35.7034 253.631 36.2565 253.552 36.8858C253.477 37.4824 253.322 38.0044 253.089 38.4517C252.855 38.8954 252.556 39.231 252.191 39.4585C251.827 39.6824 251.408 39.7646 250.935 39.7051C250.371 39.6341 249.938 39.3745 249.636 38.9262L249.302 41.5837L247.555 41.5467L248.589 33.3341L250.116 33.5264L250.111 34.1854C250.386 33.9132 250.671 33.7311 250.967 33.639C251.264 33.5433 251.548 33.5127 251.821 33.547ZM251.126 34.7512C250.926 34.726 250.742 34.7638 250.574 34.8646C250.406 34.9654 250.246 35.1115 250.092 35.3028L249.785 37.7475C249.882 37.9409 249.991 38.0877 250.112 38.1878C250.236 38.2884 250.389 38.3502 250.571 38.3731C250.876 38.4116 251.132 38.3033 251.338 38.0484C251.544 37.7898 251.688 37.3349 251.77 36.6837C251.831 36.2035 251.843 35.8281 251.807 35.5574C251.771 35.2832 251.694 35.0868 251.576 34.9685C251.458 34.8465 251.308 34.7741 251.126 34.7512ZM257.667 34.2829C258.263 34.3581 258.755 34.5493 259.141 34.8566C259.528 35.1639 259.803 35.5626 259.966 36.0525C260.13 36.5388 260.174 37.0912 260.096 37.7097C260.015 38.3536 259.832 38.8942 259.548 39.3314C259.268 39.7655 258.903 40.0799 258.454 40.2746C258.004 40.4693 257.483 40.5294 256.89 40.4547C256.3 40.3805 255.81 40.195 255.419 39.8981C255.031 39.6017 254.754 39.2083 254.586 38.7179C254.422 38.2279 254.381 37.6592 254.463 37.0116C254.54 36.3968 254.719 35.8724 254.999 35.4383C255.283 35.0046 255.65 34.685 256.101 34.4794C256.556 34.2742 257.077 34.2087 257.667 34.2829ZM257.507 35.5544C257.154 35.51 256.874 35.6225 256.666 35.892C256.462 36.1584 256.321 36.6062 256.242 37.2356C256.161 37.8759 256.187 38.3502 256.318 38.6587C256.452 38.9676 256.696 39.1443 257.049 39.1887C257.402 39.2331 257.68 39.1222 257.884 38.8559C258.091 38.59 258.235 38.1333 258.317 37.4857C258.396 36.86 258.368 36.3927 258.233 36.0837C258.102 35.7753 257.86 35.5988 257.507 35.5544ZM266.206 41.0955C265.963 41.2126 265.674 41.3019 265.341 41.3635C265.008 41.425 264.642 41.4306 264.241 41.3803C263.485 41.285 262.947 41.0214 262.628 40.5895C262.31 40.154 262.192 39.6034 262.276 38.9376L262.607 36.3074L261.39 36.1542L261.54 34.9646L262.757 35.1178L262.915 33.8627L264.666 33.8724L264.481 35.3349L266.348 35.5698L266.029 36.7382L264.332 36.5245L264.001 39.1547C263.964 39.4421 264.004 39.6559 264.119 39.7961C264.235 39.9363 264.436 40.0245 264.724 40.0606C264.927 40.0863 265.116 40.086 265.289 40.0598C265.467 40.0304 265.627 39.9859 265.772 39.9265L266.206 41.0955ZM272.75 41.9193C272.507 42.0364 272.218 42.1258 271.885 42.1873C271.552 42.2489 271.186 42.2545 270.786 42.2041C270.029 42.1088 269.491 41.8453 269.172 41.4134C268.854 40.9779 268.736 40.4272 268.82 39.7615L269.151 37.1313L267.934 36.9781L268.084 35.7885L269.301 35.9417L269.459 34.6866L271.21 34.6963L271.026 36.1587L272.892 36.3937L272.573 37.562L270.876 37.3484L270.545 39.9786C270.508 40.266 270.548 40.4798 270.663 40.62C270.779 40.7601 270.98 40.8483 271.268 40.8845C271.471 40.9101 271.66 40.9099 271.833 40.8836C272.011 40.8542 272.171 40.8098 272.316 40.7503L272.75 41.9193ZM275.832 40.2174C275.832 40.5389 275.882 40.8057 275.981 41.0177C276.084 41.2266 276.228 41.3888 276.413 41.5045C276.598 41.6166 276.813 41.6879 277.056 41.7186C277.322 41.752 277.584 41.7407 277.842 41.6845C278.101 41.6283 278.354 41.5419 278.601 41.4253L279.176 42.4511C278.874 42.6496 278.519 42.7989 278.111 42.899C277.706 42.9996 277.257 43.0188 276.762 42.9565C276.1 42.8732 275.562 42.6724 275.147 42.3541C274.733 42.0322 274.442 41.626 274.275 41.1356C274.108 40.6452 274.062 40.0999 274.137 39.4996C274.209 38.9284 274.384 38.4238 274.661 37.9856C274.938 37.5438 275.303 37.211 275.756 36.9871C276.214 36.7601 276.746 36.6849 277.354 36.7614C277.906 36.831 278.37 37.0095 278.744 37.2968C279.122 37.5845 279.394 37.9643 279.56 38.4361C279.729 38.9083 279.775 39.4554 279.697 40.0775C279.684 40.1758 279.667 40.2808 279.646 40.3927C279.628 40.505 279.608 40.6041 279.586 40.69L275.832 40.2174ZM277.208 37.9182C276.899 37.8793 276.635 37.9589 276.418 38.157C276.201 38.3551 276.042 38.6954 275.941 39.1778L278.069 39.4457C278.118 39.0233 278.079 38.6747 277.951 38.3998C277.823 38.125 277.575 37.9645 277.208 37.9182ZM284.917 35.3854L286.619 35.7826L285.6 43.8806L284.072 43.6883L284.065 43.0388C283.876 43.2442 283.639 43.4121 283.353 43.5423C283.067 43.669 282.735 43.7085 282.357 43.6608C281.876 43.6004 281.494 43.4211 281.21 43.1229C280.93 42.8253 280.741 42.4356 280.642 41.9539C280.548 41.469 280.54 40.9155 280.619 40.2934C280.694 39.6968 280.853 39.1791 281.097 38.7404C281.341 38.3018 281.652 37.9732 282.03 37.7548C282.409 37.5328 282.837 37.4517 283.314 37.5117C283.572 37.5442 283.806 37.6199 284.017 37.7388C284.227 37.8577 284.409 38.0155 284.561 38.2121L284.917 35.3854ZM283.619 38.8307C283.321 38.7931 283.063 38.9048 282.845 39.1656C282.628 39.4229 282.478 39.8771 282.396 40.5283C282.336 41.0048 282.328 41.3807 282.371 41.6559C282.414 41.9274 282.496 42.1244 282.618 42.2469C282.739 42.3693 282.887 42.4415 283.062 42.4635C283.254 42.4878 283.437 42.4498 283.608 42.3494C283.783 42.2495 283.946 42.1037 284.096 41.9119L284.41 39.4126C284.309 39.2483 284.196 39.1159 284.072 39.0153C283.948 38.9146 283.797 38.8531 283.619 38.8307ZM295.097 44.0286C295.125 43.8067 295.205 43.6117 295.337 43.4435C295.47 43.2717 295.635 43.1429 295.835 43.0571C296.034 42.9677 296.245 42.937 296.467 42.9649C296.693 42.9933 296.891 43.0756 297.062 43.2117C297.231 43.3437 297.358 43.5094 297.443 43.7087C297.53 43.9043 297.559 44.1131 297.531 44.335C297.503 44.5533 297.423 44.7483 297.291 44.9201C297.158 45.0919 296.994 45.2209 296.799 45.3072C296.599 45.3966 296.386 45.4271 296.161 45.3987C295.939 45.3708 295.742 45.2887 295.571 45.1526C295.399 45.0201 295.27 44.8542 295.185 44.6549C295.099 44.4557 295.07 44.2469 295.097 44.0286ZM299.463 44.5782C299.491 44.3563 299.571 44.1612 299.703 43.9931C299.835 43.8213 300.001 43.6925 300.2 43.6067C300.4 43.5173 300.611 43.4866 300.833 43.5145C301.058 43.5429 301.255 43.6249 301.423 43.7606C301.594 43.8931 301.723 44.059 301.809 44.2583C301.895 44.4539 301.924 44.6627 301.896 44.8846C301.869 45.1029 301.789 45.2979 301.656 45.4697C301.524 45.6415 301.358 45.7703 301.159 45.8561C300.963 45.946 300.752 45.9767 300.526 45.9483C300.304 45.9204 300.108 45.8383 299.936 45.7022C299.765 45.5697 299.636 45.4038 299.55 45.2045C299.464 45.0053 299.435 44.7965 299.463 44.5782ZM290.732 43.479C290.759 43.2571 290.839 43.0621 290.971 42.8939C291.104 42.7221 291.27 42.5933 291.469 42.5075C291.669 42.4181 291.88 42.3874 292.102 42.4153C292.327 42.4437 292.526 42.526 292.697 42.6621C292.865 42.7941 292.992 42.9598 293.078 43.1591C293.164 43.3547 293.193 43.5635 293.165 43.7854C293.138 44.0037 293.058 44.1987 292.925 44.3705C292.793 44.5423 292.629 44.6713 292.433 44.7576C292.233 44.847 292.021 44.8775 291.795 44.8491C291.573 44.8212 291.377 44.7391 291.205 44.603C291.034 44.4705 290.905 44.3046 290.819 44.1053C290.733 43.9061 290.704 43.6973 290.732 43.479Z" fill="#DC3545"/>
<path d="M270.999 65.1064C270.976 65.9575 270.256 66.625 269.405 66.625H266.703V67.4062C266.703 68.4738 266.465 69.4855 266.039 70.3918L268.98 73.3327C269.59 73.9429 269.59 74.9322 268.98 75.5424C268.37 76.1526 267.38 76.1525 266.77 75.5424L264.097 72.8697C262.889 73.8499 261.349 74.4375 259.672 74.4375V62.5234C259.672 62.1999 259.409 61.9375 259.086 61.9375H257.914C257.59 61.9375 257.328 62.1999 257.328 62.5234V74.4375C255.651 74.4375 254.111 73.8499 252.903 72.8697L250.23 75.5424C249.62 76.1526 248.63 76.1525 248.02 75.5424C247.41 74.9322 247.41 73.9429 248.02 73.3327L250.961 70.3918C250.535 69.4855 250.297 68.4738 250.297 67.4062V66.625H247.595C246.744 66.625 246.024 65.9575 246.001 65.1064C245.976 64.2234 246.685 63.5 247.562 63.5H250.297V60.6316L248.02 58.3548C247.41 57.7446 247.41 56.7553 248.02 56.1451C248.63 55.5349 249.62 55.5349 250.23 56.1451L252.897 58.8125H264.103L266.77 56.1452C267.38 55.535 268.37 55.535 268.98 56.1452C269.59 56.7554 269.59 57.7447 268.98 58.3549L266.703 60.6316V63.5H269.437C270.315 63.5 271.024 64.2234 270.999 65.1064ZM258.549 51C255.528 51 253.08 53.4484 253.08 56.4688H264.018C264.018 53.4484 261.569 51 258.549 51Z" fill="#DC3545"/>
<path d="M100.062 158.623L90.5068 156.606L90.1064 158.525L99.6621 160.527L100.062 158.623ZM102.553 154.375L95.0576 148.11L93.8125 149.614L101.308 155.879L102.553 154.375ZM101.029 156.313L92.1768 152.178L91.3613 153.96L100.209 158.086L101.029 156.313ZM98.6611 145L97.0986 146.172L102.924 153.999L104.486 152.827L98.6611 145ZM99.6621 161.016H89.8965V162.954H99.6621V161.016ZM101.601 164.922H87.9531V159.062H86V166.875H103.554V159.062H101.601V164.922Z" fill="#DC3545"/>
<path d="M311.162 152.021C311.211 152.045 311.25 152.104 311.309 152.104C311.363 152.104 311.446 152.084 311.45 152.03C311.46 151.962 311.358 151.918 311.294 151.889C311.211 151.855 311.104 151.84 311.026 151.884C311.006 151.894 310.987 151.918 310.996 151.938C311.011 152.001 311.109 151.991 311.162 152.021ZM310.093 152.104C310.152 152.104 310.191 152.045 310.24 152.021C310.293 151.991 310.391 152.001 310.41 151.942C310.42 151.923 310.401 151.898 310.381 151.889C310.303 151.845 310.196 151.859 310.113 151.894C310.049 151.923 309.947 151.967 309.956 152.035C309.961 152.084 310.044 152.108 310.093 152.104ZM320.889 165.717C320.713 165.521 320.63 165.15 320.537 164.755C320.45 164.359 320.347 163.935 320.025 163.661C319.961 163.607 319.898 163.559 319.829 163.52C319.766 163.48 319.698 163.446 319.629 163.422C320.078 162.089 319.903 160.761 319.449 159.56C318.892 158.09 317.92 156.806 317.178 155.927C316.343 154.877 315.533 153.881 315.547 152.411C315.572 150.17 315.796 146.005 311.846 146C306.846 145.99 308.096 151.049 308.042 152.602C307.959 153.744 307.73 154.643 306.944 155.761C306.021 156.859 304.722 158.632 304.107 160.482C303.814 161.356 303.677 162.245 303.804 163.085C303.487 163.368 303.247 163.803 302.993 164.071C302.788 164.281 302.491 164.359 302.163 164.477C301.836 164.594 301.48 164.77 301.26 165.185C301.158 165.375 301.123 165.58 301.123 165.79C301.123 165.98 301.153 166.176 301.182 166.366C301.241 166.762 301.304 167.133 301.221 167.382C300.967 168.085 300.933 168.573 301.114 168.93C301.299 169.286 301.67 169.442 302.095 169.53C302.94 169.706 304.087 169.662 304.991 170.141C305.957 170.648 306.939 170.829 307.72 170.648C308.286 170.521 308.75 170.18 308.985 169.662C309.595 169.657 310.269 169.398 311.343 169.34C312.071 169.281 312.984 169.599 314.034 169.54C314.063 169.652 314.102 169.765 314.156 169.867V169.872C314.561 170.688 315.318 171.059 316.123 170.995C316.934 170.932 317.788 170.458 318.482 169.633C319.146 168.832 320.24 168.5 320.967 168.061C321.328 167.841 321.621 167.567 321.646 167.167C321.665 166.767 321.431 166.322 320.889 165.717ZM311.304 150.263C311.783 149.179 312.974 149.198 313.452 150.243C313.77 150.937 313.628 151.752 313.242 152.216C313.164 152.177 312.954 152.089 312.627 151.977C312.681 151.918 312.779 151.845 312.818 151.752C313.052 151.176 312.808 150.434 312.373 150.419C312.017 150.395 311.695 150.946 311.797 151.542C311.597 151.444 311.338 151.371 311.162 151.327C311.114 150.99 311.148 150.614 311.304 150.263ZM309.317 149.701C309.81 149.701 310.332 150.395 310.249 151.337C310.078 151.386 309.903 151.459 309.751 151.562C309.81 151.127 309.59 150.58 309.283 150.605C308.872 150.639 308.804 151.64 309.195 151.977C309.243 152.016 309.287 151.967 308.907 152.245C308.145 151.532 308.394 149.701 309.317 149.701ZM308.653 152.665C308.955 152.44 309.317 152.177 309.341 152.152C309.571 151.938 310 151.459 310.703 151.459C311.05 151.459 311.465 151.571 311.968 151.894C312.276 152.094 312.52 152.108 313.072 152.348C313.482 152.519 313.741 152.821 313.584 153.236C313.457 153.583 313.047 153.939 312.476 154.12C311.934 154.296 311.509 154.901 310.611 154.848C310.42 154.838 310.269 154.799 310.142 154.745C309.751 154.574 309.546 154.237 309.165 154.013C308.745 153.778 308.521 153.505 308.448 153.266C308.379 153.026 308.448 152.826 308.653 152.665ZM308.814 168.974C308.682 170.688 306.67 170.653 305.137 169.853C303.677 169.081 301.787 169.535 301.402 168.783C301.284 168.554 301.284 168.163 301.529 167.494V167.484C301.646 167.113 301.558 166.703 301.499 166.317C301.441 165.937 301.411 165.585 301.543 165.341C301.714 165.014 301.958 164.896 302.266 164.789C302.769 164.608 302.842 164.623 303.223 164.306C303.492 164.027 303.687 163.676 303.921 163.427C304.17 163.158 304.409 163.031 304.785 163.09C305.181 163.148 305.523 163.422 305.855 163.871L306.812 165.609C307.276 166.581 308.916 167.973 308.814 168.974ZM308.745 167.709C308.545 167.387 308.277 167.045 308.042 166.752C308.389 166.752 308.736 166.645 308.858 166.317C308.97 166.015 308.858 165.59 308.496 165.102C307.837 164.213 306.626 163.515 306.626 163.515C305.967 163.105 305.596 162.602 305.425 162.055C305.254 161.508 305.279 160.917 305.41 160.336C305.664 159.218 306.319 158.129 306.739 157.445C306.851 157.362 306.778 157.602 306.314 158.461C305.899 159.247 305.122 161.063 306.187 162.484C306.216 161.474 306.455 160.443 306.861 159.481C307.447 158.144 308.682 155.824 308.78 153.979C308.833 154.018 309.004 154.135 309.082 154.179C309.307 154.311 309.478 154.506 309.698 154.682C310.303 155.17 311.089 155.131 311.768 154.74C312.071 154.569 312.315 154.374 312.544 154.301C313.028 154.149 313.413 153.881 313.633 153.568C314.009 155.053 314.888 157.196 315.45 158.241C315.747 158.798 316.343 159.975 316.602 161.396C316.763 161.391 316.944 161.415 317.134 161.464C317.808 159.721 316.563 157.841 315.996 157.318C315.767 157.094 315.757 156.996 315.869 157.001C316.485 157.548 317.295 158.646 317.588 159.882C317.725 160.448 317.749 161.039 317.608 161.625C318.409 161.957 319.361 162.499 319.107 163.324C318.999 163.319 318.95 163.324 318.902 163.324C319.058 162.831 318.711 162.465 317.788 162.05C316.831 161.63 316.031 161.63 315.918 162.66C315.327 162.865 315.025 163.378 314.873 163.993C314.737 164.54 314.698 165.199 314.659 165.941C314.634 166.317 314.483 166.82 314.326 167.357C312.759 168.476 310.581 168.964 308.745 167.709ZM321.314 167.147C321.27 167.968 319.302 168.119 318.228 169.418C317.583 170.185 316.792 170.609 316.099 170.663C315.406 170.717 314.805 170.429 314.453 169.721C314.224 169.179 314.336 168.593 314.507 167.948C314.688 167.255 314.956 166.542 314.991 165.966C315.03 165.224 315.074 164.574 315.196 164.076C315.323 163.573 315.518 163.236 315.865 163.046C315.879 163.036 315.899 163.031 315.913 163.021C315.952 163.666 316.27 164.32 316.831 164.462C317.447 164.623 318.33 164.096 318.706 163.666C319.146 163.651 319.473 163.622 319.81 163.915C320.293 164.33 320.157 165.395 320.645 165.946C321.162 166.513 321.328 166.898 321.314 167.147ZM308.843 153.261C308.941 153.354 309.073 153.48 309.234 153.607C309.556 153.861 310.005 154.125 310.567 154.125C311.133 154.125 311.665 153.837 312.119 153.598C312.359 153.471 312.652 153.256 312.842 153.09C313.033 152.924 313.13 152.782 312.993 152.768C312.857 152.753 312.867 152.895 312.7 153.017C312.486 153.173 312.227 153.378 312.022 153.495C311.66 153.7 311.07 153.993 310.562 153.993C310.054 153.993 309.649 153.759 309.346 153.52C309.195 153.397 309.068 153.275 308.97 153.183C308.897 153.114 308.877 152.958 308.76 152.943C308.692 152.938 308.672 153.124 308.843 153.261Z" fill="#DC3545"/>
<path d="M200.196 269.84V272.48C199.708 272.48 199.288 272.524 198.936 272.612C198.592 272.692 198.332 272.844 198.156 273.068C197.988 273.284 197.924 273.596 197.964 274.004L198.336 277.544C198.432 278.44 198.332 279.164 198.036 279.716C197.748 280.268 197.304 280.692 196.704 280.988C196.112 281.276 195.412 281.48 194.604 281.6C195.46 281.728 196.184 281.936 196.776 282.224C197.368 282.512 197.8 282.928 198.072 283.472C198.344 284.016 198.432 284.744 198.336 285.656L197.964 289.196C197.924 289.596 197.988 289.908 198.156 290.132C198.332 290.356 198.596 290.508 198.948 290.588C199.3 290.676 199.716 290.72 200.196 290.72V293.36C199.092 293.36 198.156 293.28 197.388 293.12C196.62 292.96 196.004 292.704 195.54 292.352C195.084 292.008 194.768 291.552 194.592 290.984C194.424 290.424 194.38 289.74 194.46 288.932L194.82 285.5C194.884 284.892 194.78 284.416 194.508 284.072C194.244 283.728 193.852 283.488 193.332 283.352C192.812 283.208 192.212 283.136 191.532 283.136V280.064C192.204 280.064 192.8 279.996 193.32 279.86C193.84 279.716 194.236 279.472 194.508 279.128C194.78 278.784 194.884 278.308 194.82 277.7L194.46 274.292C194.372 273.468 194.412 272.772 194.58 272.204C194.756 271.636 195.072 271.18 195.528 270.836C195.992 270.484 196.608 270.232 197.376 270.08C198.152 269.92 199.092 269.84 200.196 269.84ZM206.595 269.84C207.699 269.84 208.635 269.92 209.403 270.08C210.171 270.24 210.783 270.496 211.239 270.848C211.703 271.192 212.023 271.648 212.199 272.216C212.375 272.776 212.419 273.46 212.331 274.268L211.971 277.7C211.907 278.308 212.011 278.784 212.283 279.128C212.555 279.472 212.947 279.716 213.459 279.86C213.979 279.996 214.579 280.064 215.259 280.064V283.136C214.587 283.136 213.991 283.208 213.471 283.352C212.951 283.488 212.555 283.728 212.283 284.072C212.011 284.416 211.907 284.892 211.971 285.5L212.331 288.908C212.419 289.732 212.375 290.428 212.199 290.996C212.031 291.564 211.715 292.02 211.251 292.364C210.795 292.716 210.179 292.968 209.403 293.12C208.635 293.28 207.699 293.36 206.595 293.36V290.72C207.083 290.72 207.499 290.676 207.843 290.588C208.195 290.508 208.455 290.356 208.623 290.132C208.799 289.908 208.867 289.596 208.827 289.196L208.455 285.656C208.359 284.752 208.455 284.028 208.743 283.484C209.039 282.932 209.487 282.512 210.087 282.224C210.687 281.928 211.391 281.72 212.199 281.6C211.343 281.472 210.615 281.264 210.015 280.976C209.423 280.688 208.991 280.272 208.719 279.728C208.447 279.176 208.359 278.448 208.455 277.544L208.827 274.004C208.867 273.596 208.799 273.284 208.623 273.068C208.455 272.844 208.195 272.692 207.843 272.612C207.499 272.524 207.083 272.48 206.595 272.48V269.84Z" fill="#191627"/>
</g>
<defs>
<linearGradient id="paint0_linear_15_15" x1="200.002" y1="170.904" x2="200.002" y2="279.395" gradientUnits="userSpaceOnUse">
<stop offset="0.28125" stop-color="#784421"/>
<stop offset="1" stop-color="#784421" stop-opacity="0"/>
</linearGradient>
<linearGradient id="paint1_linear_15_15" x1="200.002" y1="170.904" x2="200.002" y2="279.395" gradientUnits="userSpaceOnUse">
<stop stop-color="#784421"/>
<stop offset="1" stop-color="#784421" stop-opacity="0"/>
</linearGradient>
<linearGradient id="paint2_linear_15_15" x1="199.997" y1="259.487" x2="199.997" y2="294.323" gradientUnits="userSpaceOnUse">
<stop offset="0.46875" stop-color="#502D16"/>
<stop offset="1" stop-color="#502D16" stop-opacity="0"/>
</linearGradient>
<linearGradient id="paint3_linear_15_15" x1="311.393" y1="98.9209" x2="311.393" y2="209.021" gradientUnits="userSpaceOnUse">
<stop/>
<stop offset="1" stop-opacity="0"/>
</linearGradient>
<linearGradient id="paint4_linear_15_15" x1="311.425" y1="114.854" x2="287.482" y2="184.775" gradientUnits="userSpaceOnUse">
<stop/>
<stop offset="1" stop-opacity="0"/>
</linearGradient>
<linearGradient id="paint5_linear_15_15" x1="96.8573" y1="98.8907" x2="96.8573" y2="208.961" gradientUnits="userSpaceOnUse">
<stop/>
<stop offset="1" stop-opacity="0"/>
</linearGradient>
<linearGradient id="paint6_linear_15_15" x1="96.8543" y1="114.854" x2="120.797" y2="184.775" gradientUnits="userSpaceOnUse">
<stop/>
<stop offset="1" stop-opacity="0"/>
</linearGradient>
<linearGradient id="paint7_linear_15_15" x1="204.448" y1="96.5033" x2="204.448" y2="184.082" gradientUnits="userSpaceOnUse">
<stop/>
<stop offset="1" stop-opacity="0"/>
</linearGradient>
<linearGradient id="paint8_linear_15_15" x1="204.454" y1="101.141" x2="204.454" y2="179.26" gradientUnits="userSpaceOnUse">
<stop/>
<stop offset="1" stop-opacity="0"/>
</linearGradient>
<linearGradient id="paint9_linear_15_15" x1="148.679" y1="9.16012" x2="148.679" y2="103.126" gradientUnits="userSpaceOnUse">
<stop/>
<stop offset="1" stop-opacity="0"/>
</linearGradient>
<linearGradient id="paint10_linear_15_15" x1="148.682" y1="17.0398" x2="155.29" y2="94.5961" gradientUnits="userSpaceOnUse">
<stop/>
<stop offset="1" stop-opacity="0"/>
</linearGradient>
<linearGradient id="paint11_linear_15_15" x1="260.222" y1="9.26837" x2="260.222" y2="102.868" gradientUnits="userSpaceOnUse">
<stop/>
<stop offset="1" stop-opacity="0"/>
</linearGradient>
<linearGradient id="paint12_linear_15_15" x1="260.232" y1="17.0364" x2="253.624" y2="94.5927" gradientUnits="userSpaceOnUse">
<stop/>
<stop offset="1" stop-opacity="0"/>
</linearGradient>
<linearGradient id="paint13_linear_15_15" x1="203.062" y1="225.571" x2="203.062" y2="264.241" gradientUnits="userSpaceOnUse">
<stop offset="0.375" stop-color="#666666"/>
<stop offset="1" stop-color="#666666" stop-opacity="0"/>
</linearGradient>
<linearGradient id="paint14_linear_15_15" x1="148.792" y1="243.88" x2="148.792" y2="311.631" gradientUnits="userSpaceOnUse">
<stop stop-color="#DC3545"/>
<stop offset="1" stop-color="#DC3545" stop-opacity="0"/>
</linearGradient>
<linearGradient id="paint15_linear_15_15" x1="148.792" y1="243.88" x2="148.792" y2="311.631" gradientUnits="userSpaceOnUse">
<stop/>
<stop offset="1" stop-opacity="0"/>
</linearGradient>
<linearGradient id="paint16_linear_15_15" x1="253.75" y1="244.877" x2="253.75" y2="312.627" gradientUnits="userSpaceOnUse">
<stop stop-color="#DC3545"/>
<stop offset="1" stop-color="#DC3545" stop-opacity="0"/>
</linearGradient>
<linearGradient id="paint17_linear_15_15" x1="253.75" y1="244.877" x2="253.75" y2="312.627" gradientUnits="userSpaceOnUse">
<stop/>
<stop offset="1" stop-opacity="0"/>
</linearGradient>
<linearGradient id="paint18_linear_15_15" x1="203.064" y1="207.677" x2="203.064" y2="348.872" gradientUnits="userSpaceOnUse">
<stop offset="0.677083" stop-color="#DC3545"/>
<stop offset="1" stop-color="#DC3545" stop-opacity="0"/>
</linearGradient>
<linearGradient id="paint19_linear_15_15" x1="203.064" y1="207.677" x2="203.064" y2="348.872" gradientUnits="userSpaceOnUse">
<stop/>
<stop offset="1" stop-opacity="0"/>
</linearGradient>
<clipPath id="clip0_15_15">
<rect width="400" height="350" fill="white"/>
</clipPath>
</defs>
</svg>
